<?xml version="1.0" standalone="no"?>
<!DOCTYPE svg PUBLIC "-//W3C//DTD SVG 20010904//EN"
 "http://www.w3.org/TR/2001/REC-SVG-20010904/DTD/svg10.dtd">
<svg version="1.0" xmlns="http://www.w3.org/2000/svg"
 width="1920.000000pt" height="1080.000000pt" viewBox="0 0 1920.000000 1080.000000"
 preserveAspectRatio="xMidYMid meet">

<g transform="translate(0.000000,1080.000000) scale(0.100000,-0.100000)"
fill="#000000" stroke="none">
<path d="M16600 7754 c-8 -2 -109 -13 -225 -24 -426 -42 -546 -67 -935 -195
-124 -41 -250 -81 -281 -90 -65 -17 -134 -61 -269 -171 -52 -42 -145 -110
-206 -150 -108 -70 -215 -166 -488 -440 -144 -144 -301 -315 -328 -359 -14
-22 -44 -87 -67 -145 -117 -287 -153 -313 -404 -289 -174 16 -1018 21 -1089 5
-33 -6 -80 -6 -151 1 -83 9 -116 8 -172 -4 -88 -18 -529 -25 -633 -11 -56 8
-86 8 -127 -2 -54 -13 -56 -12 -147 25 -51 21 -131 58 -176 83 -87 47 -134 55
-189 34 -15 -6 -40 -13 -55 -16 -17 -4 -38 -21 -52 -44 -14 -20 -34 -48 -45
-62 -26 -32 -26 -40 1 -103 54 -129 80 -151 464 -393 280 -176 298 -188 444
-309 58 -47 143 -111 190 -142 171 -113 294 -219 397 -346 13 -15 30 -27 38
-27 28 0 76 -30 140 -88 34 -32 93 -82 130 -112 369 -302 347 -281 369 -341
12 -30 34 -71 49 -92 51 -65 59 -112 47 -286 -12 -179 -63 -396 -150 -641 -78
-221 -100 -305 -111 -424 -8 -90 -19 -139 -64 -273 -30 -90 -59 -193 -65 -229
-5 -35 -15 -93 -20 -129 -10 -63 -66 -223 -128 -370 -51 -119 -166 -458 -247
-725 -42 -140 -87 -273 -100 -295 -24 -42 -88 -242 -100 -310 -3 -22 -20 -86
-36 -141 -16 -56 -29 -107 -29 -113 0 -8 52 -11 181 -9 l182 3 45 115 c24 63
64 194 89 290 46 185 67 249 108 330 28 55 234 678 289 873 24 86 56 169 96
248 105 208 114 236 215 674 48 207 117 420 167 518 47 92 57 125 104 366 35
183 35 186 24 310 -20 232 -40 370 -61 423 -41 104 -99 169 -316 351 -308 258
-332 277 -451 345 -87 49 -135 86 -232 178 -67 63 -163 147 -214 184 -139 105
-178 143 -170 164 7 17 18 18 158 11 83 -4 194 -7 246 -7 62 1 105 -3 121 -12
23 -12 32 -10 85 17 70 35 81 35 281 6 167 -25 138 -26 653 26 221 22 285 49
357 149 20 28 67 90 104 137 38 47 102 141 144 210 97 156 167 242 258 315
108 87 137 115 159 157 31 62 94 123 236 231 219 166 251 186 504 314 l243
122 150 25 c83 14 215 41 295 60 80 19 199 44 265 55 67 11 163 29 215 40 106
22 221 26 301 9 30 -6 104 -13 164 -14 192 -5 221 -11 391 -78 198 -79 228
-95 337 -172 48 -35 125 -82 172 -105 112 -57 232 -165 338 -305 45 -60 128
-166 183 -235 153 -192 186 -252 266 -478 119 -338 149 -515 121 -707 -10 -64
-13 -123 -8 -165 14 -126 5 -1133 -11 -1315 -29 -328 -78 -665 -129 -885 -19
-80 -48 -226 -64 -325 -16 -99 -50 -267 -75 -372 -25 -106 -50 -230 -56 -276
-6 -47 -40 -182 -82 -317 -55 -182 -73 -256 -79 -328 -6 -70 -14 -107 -33
-145 -24 -46 -26 -62 -24 -147 1 -79 -2 -103 -19 -140 -12 -25 -40 -105 -62
-179 -22 -73 -47 -144 -55 -156 -12 -17 -76 -349 -76 -389 0 -3 81 -6 179 -6
162 0 180 2 185 18 17 59 89 424 111 567 51 331 116 602 202 830 76 206 103
295 115 379 11 73 15 85 50 120 43 44 45 58 23 145 -15 57 -15 65 5 148 27
116 94 352 120 428 16 46 24 110 35 272 12 182 18 223 41 285 33 94 41 175 49
553 4 193 12 344 22 400 9 56 18 228 24 455 9 327 8 405 -11 750 -21 372 -22
387 -48 445 -21 46 -27 77 -28 135 -1 74 -2 77 -97 260 -52 102 -97 196 -100
210 -4 14 -29 52 -58 85 -28 33 -96 121 -152 195 -146 196 -255 326 -334 401
-92 87 -339 271 -412 308 -32 17 -69 44 -82 60 -13 17 -35 45 -48 62 -21 27
-28 30 -72 28 -26 -2 -53 2 -61 7 -25 19 -233 111 -298 132 -84 27 -230 46
-350 47 -74 0 -100 4 -120 18 -22 16 -62 20 -100 11z"/>
<path d="M16305 6160 c-111 -17 -170 -61 -245 -185 -74 -123 -108 -201 -141
-326 -34 -132 -36 -183 -9 -224 14 -21 18 -39 14 -61 -12 -64 50 -134 166
-188 116 -53 112 -53 230 2 58 27 120 61 137 76 39 32 110 131 149 206 27 52
29 63 32 202 4 174 -12 277 -60 372 -35 70 -53 93 -88 111 -34 17 -124 25
-185 15z"/>
</g>
</svg>
